<svg width="24" height="24" viewBox="0 0 24 24" fill="none" xmlns="http://www.w3.org/2000/svg">
  <!-- Roof -->
  <path d="M3 12L12 3L21 12L19 10V20C19 20.5523 18.5523 21 18 21H6C5.44772 21 5 20.5523 5 20V10L3 12Z" 
        fill="#8B4513" 
        stroke="#654321" 
        stroke-width="1"/>
  
  <!-- House walls -->
  <rect x="5" y="10" width="14" height="11" fill="#F5DEB3" stroke="#D2B48C" stroke-width="0.5"/>
  
  <!-- Door -->
  <rect x="10" y="15" width="4" height="6" fill="#654321" rx="0.5"/>
  <circle cx="12.5" cy="18" r="0.3" fill="#8B4513"/>
  
  <!-- Windows -->
  <rect x="7" y="12" width="3" height="3" fill="#87CEEB" stroke="#654321" stroke-width="0.5"/>
  <rect x="14" y="12" width="3" height="3" fill="#87CEEB" stroke="#654321" stroke-width="0.5"/>
  
  <!-- Window panes -->
  <line x1="8.5" y1="12" x2="8.5" y2="15" stroke="#654321" stroke-width="0.3"/>
  <line x1="7" y1="13.5" x2="10" y2="13.5" stroke="#654321" stroke-width="0.3"/>
  <line x1="15.5" y1="12" x2="15.5" y2="15" stroke="#654321" stroke-width="0.3"/>
  <line x1="14" y1="13.5" x2="17" y2="13.5" stroke="#654321" stroke-width="0.3"/>
  
  <!-- Chimney -->
  <rect x="16" y="6" width="2.5" height="5" fill="#8B4513" stroke="#654321" stroke-width="0.5"/>
</svg>