<?xml version="1.0" encoding="UTF-8"?>
<svg width="1200pt" height="1200pt" version="1.1" viewBox="0 0 1200 1200" xmlns="http://www.w3.org/2000/svg">
 <path d="m450 468.75h-37.5c0 6.6992-3.5742 12.887-9.375 16.238-5.8008 3.3477-12.949 3.3477-18.75 0-5.8008-3.3516-9.375-9.5391-9.375-16.238h-37.5c0 20.098 10.723 38.664 28.125 48.715 17.402 10.047 38.848 10.047 56.25 0 17.402-10.051 28.125-28.617 28.125-48.715z"/>
 <path d="m581.25 525c14.914-0.015625 29.211-5.9492 39.758-16.492 10.543-10.547 16.477-24.844 16.492-39.758h-37.5c0 6.6992-3.5742 12.887-9.375 16.238-5.8008 3.3477-12.949 3.3477-18.75 0-5.8008-3.3516-9.375-9.5391-9.375-16.238h-37.5c0.015625 14.914 5.9492 29.211 16.492 39.758 10.547 10.543 24.844 16.477 39.758 16.492z"/>
 <path d="m431.25 243.75c0 14.918 5.9258 29.227 16.477 39.773 10.547 10.551 24.855 16.477 39.773 16.477s29.227-5.9258 39.773-16.477c10.551-10.547 16.477-24.855 16.477-39.773s-5.9258-29.227-16.477-39.773c-10.547-10.551-24.855-16.477-39.773-16.477-14.914 0.015625-29.211 5.9492-39.758 16.492-10.543 10.547-16.477 24.844-16.492 39.758zm75 0c0 4.9727-1.9766 9.7422-5.4922 13.258-3.5156 3.5156-8.2852 5.4922-13.258 5.4922s-9.7422-1.9766-13.258-5.4922c-3.5156-3.5156-5.4922-8.2852-5.4922-13.258s1.9766-9.7422 5.4922-13.258c3.5156-3.5156 8.2852-5.4922 13.258-5.4922 4.9727 0.003906 9.7383 1.9844 13.254 5.4961 3.5117 3.5156 5.4922 8.2812 5.4961 13.254z"/>
 <path d="m926.36 787.34-7.457-7.457c-55.133-55.328-126.26-91.93-203.32-104.63-2.6367-0.43359-5.3359-0.29688-7.918 0.40234 3.2188-12.328 4.8438-25.016 4.8359-37.754v-75.402h38.23c9.75-0.011719 19.094-3.8867 25.988-10.781s10.77-16.238 10.781-25.988v-75.73c6.5 0 12.535-3.3633 15.949-8.8945 3.418-5.5273 3.7266-12.43 0.82031-18.242l-35.52-71.039v-33.074c0.1875-61.207-19.773-120.77-56.805-169.51-33.336-43.902-78.734-77.145-130.65-95.668-0.63281-4.4609-2.8594-8.5469-6.2617-11.5-3.4062-2.9531-7.7656-4.5781-12.273-4.5742h-150.47c-4.5078-0.007812-8.8633 1.6172-12.27 4.5664-3.4062 2.9531-5.6328 7.0352-6.2695 11.496-51.926 18.52-97.336 51.758-130.68 95.66-37.039 48.738-57.004 108.31-56.82 169.53v33.074l-35.52 71.039c-2.9062 5.8125-2.5977 12.715 0.82031 18.242 3.4141 5.5312 9.4492 8.8945 15.949 8.8945v75.73c0.011719 9.75 3.8867 19.094 10.781 25.988s16.238 10.77 25.988 10.781h38.23v75.402c0.042969 39.66 15.82 77.688 43.867 105.73 28.043 28.047 66.07 43.824 105.73 43.867h0.40234v37.5h-75v37.5h86.496c17.754 15.016 40.254 23.254 63.504 23.254s45.75-8.2383 63.504-23.254h161.12c13.117 0.015625 25.82 4.5781 35.945 12.914l-249.59 249.59h-179.73v-131.25c0-4.9727-1.9766-9.7422-5.4922-13.258-3.5156-3.5156-8.2852-5.4922-13.258-5.4922h-93.75v-55.875c0.015625-15.012 5.9883-29.406 16.605-40.02 10.613-10.617 25.008-16.59 40.02-16.605h37.125v-37.5h-37.125c-24.953 0.027344-48.879 9.9531-66.523 27.602-17.648 17.645-27.574 41.57-27.602 66.523v224.62c0 4.9727 1.9766 9.7422 5.4922 13.258 3.5156 3.5156 8.2852 5.4922 13.258 5.4922h600c4.9727 0 9.7422-1.9766 13.258-5.4922 3.5156-3.5156 5.4922-8.2852 5.4922-13.258v-56.25h-37.5v37.5h-104.73l104.73-104.73v29.734h37.5v-67.234l75-75 14.145 14.148c19.84 19.828 41.059 38.227 63.492 55.062l42.363 31.773c4.0195 3.0156 9.0781 4.2891 14.047 3.5391 4.9648-0.74609 9.4219-3.457 12.375-7.5234 2.9531-4.0625 4.1484-9.1445 3.3242-14.098-12.703-77.066-49.305-148.19-104.63-203.32zm-708.53-374.84 18.75-37.5h63.414v-37.5h-56.25v-18.75c0-6.293 0.25391-12.543 0.72266-18.75h124.45c6.6719 13.98 15.754 26.672 26.832 37.5h-58.258v37.5h400.91l18.75 37.5zm388.22-112.5h124.45c0.46875 6.207 0.72266 12.457 0.72266 18.75v18.75h-152c11.078-10.828 20.16-23.52 26.832-37.5zm-24.809-56.25c0 24.863-9.8789 48.711-27.457 66.293-17.582 17.578-41.43 27.457-66.293 27.457s-48.711-9.8789-66.293-27.457c-17.578-17.582-27.457-41.43-27.457-66.293s9.8789-48.711 27.457-66.293c17.582-17.578 41.43-27.457 66.293-27.457 24.855 0.027344 48.684 9.9141 66.262 27.488 17.574 17.578 27.461 41.406 27.488 66.262zm-281.25 206.25h375v103.12l-57.188 42.891c-37.227-21.988-79.68-33.562-122.91-33.516h-14.797c-43.23-0.046875-85.68 11.531-122.9 33.516l-57.199-42.891zm450 75h-37.5v-75h37.5zm-67.969-353.14c20.414 26.898 34.961 57.773 42.707 90.641h-107.34c5.8828-40.43-7.4727-81.285-36.094-110.44l0.13281-58.238c39.793 16.746 74.484 43.66 100.6 78.039zm-138.07-96.859-0.11328 50.234c-35.645-16.977-77.043-16.977-112.69 0l-0.097656-50.234zm-251 96.844c26.125-34.383 60.828-61.293 100.63-78.031l0.11328 58.238-0.003906 0.003907c-28.625 29.152-41.98 70.012-36.098 110.45h-107.34c7.7383-32.871 22.285-63.754 42.699-90.656zm-67.969 353.16v-75h37.5v75zm75 112.9v-37.902l45 33.75c3.1016 2.3281 6.8516 3.6367 10.73 3.7422 3.8789 0.10937 7.6953-0.98828 10.922-3.1406 33.578-22.434 73.066-34.391 113.45-34.352h14.797c40.383-0.039062 79.871 11.918 113.45 34.352 3.2266 2.1523 7.043 3.25 10.922 3.1406 3.8789-0.10547 7.6289-1.4141 10.73-3.7422l45-33.75v37.902c-0.035156 29.719-11.855 58.211-32.871 79.227s-49.508 32.836-79.227 32.871h-150.8c-29.719-0.035156-58.211-11.855-79.227-32.871s-32.836-49.508-32.871-79.227zm225 197.46c-10.711 8.3633-23.91 12.906-37.5 12.906s-26.789-4.543-37.5-12.906v-47.863h75zm187.12-10.363h-149.62v-37.5h0.40234c27.887-0.027344 55.215-7.8438 78.902-22.566 23.684-14.723 42.789-35.766 55.16-60.762 0.18359 0.27344 0.33203 0.56641 0.53125 0.82812l31.773 42.363h-0.003906c16.84 22.438 35.242 43.652 55.078 63.492l14.141 14.145-23.816 23.816c-17.23-15.324-39.484-23.797-62.543-23.816zm-430.88 187.5v37.5h-75v-37.5zm-75 75h75v37.5h-75zm404.73 37.5h-59.469l273.48-273.48 29.734 29.734zm370.4-178.02c-21.016-15.77-40.891-33.008-59.477-51.582l-111.05-111.06c-18.578-18.582-35.812-38.457-51.582-59.473l-0.39844-0.53125c50.363 16.422 96.121 44.547 133.51 82.074l7.457 7.457c37.527 37.391 65.652 83.145 82.074 133.51z"/>
</svg>
